<svg version="1.0" viewBox="0 0 264 264" preserveAspectRatio="xMidYMid" xmlns="http://www.w3.org/2000/svg"><path style="fill:#000;fill-opacity:1;stroke:#000;stroke-width:.0999997" d="m129.4 32.9-21.9 4.4-18 13-14.8 23.9-1.5 18.4 4 20.9 6.4 9.4-.5 7-4.5 6h-9.4l-9-5.5v-7l1-13.9-6.4-7.5h-13l-9.4 5.5-5.5 16v17.9l6.4 9.4 7.5 6.5 10 4 16.4 1 9.5-.5H82l-19.9 15.9-6 13 5 14.4 10 8.4 15.4.5 9-7 3.4-9.9-3-10 4-3.4 6-3 11.5-13.5v8.5L110 210l3 9 8.4 11 13.5 2 14.4-9 3.5-11.5-4.5-20.9-5-23.4.5-2.5 22.4 21-3 15.9 7 9.4 13 3.5 15.9-6 9-14.4-3-13-5.5-6.4-19.4-13.4 32.3 1.5 10-4 10-10 6-17.9-2-15-9.5-12.4-11.5-4-9.4 3.5-5 14.5 2 11-3.5 5.4-7 2-10.4-4-3.5-6.5 13-26.4-2.6-26.8-15.9-23.4-22.4-14Z"/><path d="M127 2.4c-5 1.8-105 62-107.6 64.8-1.2 1.2-3 4-4 5.8-1.8 3.3-1.9 6.7-1.9 59.5 0 55.5 0 56 2.2 60 3 5.5 6.1 8.2 17.8 15l18.5 11a6252.5 6252.5 0 0 0 59.5 36.4c13.5 8.3 14.2 8.6 20 8.6 6 0 6.4-.2 23-10.4 9.4-5.7 20.6-12.5 25-15l21.5-13c7.4-4.6 19.4-11.7 26.5-15.8 22-12.7 22.5-13.8 22.4-40.7 0-21.4-4.1-28.3-4.7-6a154 154 0 0 1-3.3 27.6c-1.6 3.9-4.5 7-10.4 9.8-2 1.1-3.5 3.2-6.2 5-8.8 6.1-5.6 3-13.2 7-11.4 5.7-20.6 12.9-31.3 19.1-20.1 8.7-15 9.5-34.4 19.6-9.8 6.2-13.4 6.8-18.4 5.5-2-.5-6.8-2-14.1-6.5L94.5 238a938 938 0 0 1-29.3-17.7C53 212.6 45.6 207.5 42 205.4c-11.3-6.5-15.7-8.4-18.5-11.5a16.6 16.6 0 0 1-4-6.4c-.5-2-.6-26.4-.7-55l-.4-51.1s.2-4 1.7-5.5c2.4-5.6 17.6-13.8 17.6-13.8l27.5-16.4c1-.6 9.5-6.3 10.6-7.3 10.5-5.3 17-9.6 27.2-15.8 3.3-1.7-2.4 1 15.3-10.1 8.1-5.1 9.6-5.3 15.1-5.3 5.1 0 3.5-.3 19.3 9.4 9.2 5.7 22.8 14.2 30.5 18.7l19.2 11.4c5.8 3.7 24 14.5 30.4 18.3 3.8 2.3 4.2 1 9.4 6.9 2.4 4.3 2.3 4.6 2.5 27.5l-.6 25c1.2 4 1 15.9.6 21.8-.5 8.3 2.4 15.6 4.1 12.1 1.4-3 .7-15 1-44.3.3-23.6 0-35.9-.7-38.8-1.5-5.5-5-9.5-11.9-13.3A7086.8 7086.8 0 0 0 177.5 26c-13.2-7.9-25.9-15.6-28.2-17.2a49.3 49.3 0 0 0-16.8-7.7c-1 0-3.6.6-5.5 1.3z"/><path d="M1354 2521c-223-61-402-236-459-451-8-30-15-98-15-150 0-126 21-194 91-297 36-51 36-73 3-104-37-34-104-34-139 1l-25 26 16 66c18 72 15 95-15 144-55 90-157 118-255 70-104-51-151-150-144-306 3-76 9-107 30-151 36-79 87-131 160-165 55-25 53.1-24 150.1-27 57.5 1.4 3.8 9.7 127.9 9.7 51 1 54 1.3 35-12.7-11-8-45-30-75-47-173-101-156-366 28-445 74-32 121-36 185-18 66 19 110 54 137 107 25 49 25 94 0 143-19 39-19 56 2 56 18 0 89 62 119 103l29 40v-39c0-40-22-123-60-229-48-132-10-265 94-329 135-84 306-16 352 140 20 70 14 123-26 237-16 45-33 110-39 144-5 34-15 71-21 82-21 40 5 21 33-24 31-48 122-135 142-135 8 0 5-15-11-47-13-25-24-58-24-72 1-35 32-101 61-128 64-59 198-75 282-34 58 28 129 106 145 159s15 135-2 176c-27 64-114 141-170 150-47 7-13.7 28.6 34.3 25.6 74.5-25.8 79.1-31 208.7-5.6 128 35 214 132 240 271 26 138 7 233-61 310-71 80-152 104-235 70-48-20-71-41-94-87-22-42-25-133-7-173 27-59-73-99-143-58-44 26-46 55-11 110 17 27 43 75 59 108 26 57 28 68 28 200v140l-36 75c-83 173-209 289-385 356-95 36-239 42-340 15zm266-52c67-15 199-83 253-129 67-59 135-158 165-243 21-58 26-91 26-167 0-112-18-174-76-264-21-33-41-71-44-83-15-59 56-131 139-140 88-10 164 53 152 127-17 111-17 127-1 158 29 56 110 83 172 57 55-23 81-51 105-114 48-125 19-284-66-367-65-63-122-79-285-79-108 0-141 3-165 17-49 27-117 100-138 147-19 43-19 43-38 25-49-50 39-162 201-253 156-88 203-144 203-241 0-85-41-148-125-191-74-38-188-15-237 47-32 40-25 113 13 153l26 27-22 20c-13 10-39 28-58 38-39 21-125 100-143 131-6 11-14 46-17 78-3 31-9 58-15 60-5 1-18-20-28-48-26-75-17-193 28-336 38-121 47-207 25-250-21-41-82-98-118-110-76-25-180 21-218 97-30 62-25 159 16 269 27 74 33 109 37 195 6 111-8 190-31 190-18 0-26-22-26-76 0-30-8-57-24-83-145.6-228.1-209.6-60.4-170-216 21-31 20-106-1-139-9-14-37-35-61-47-94-45-210-10-271 83-24 35-28 52-28 109 0 99 28 134 178 225 123 74 183 124 223 186 29 45 30 64 5 78-16 8-21 5-29-18-16-46-90-119-147-148-53-25-60-26-183-22-121 3-133 6-195 36-120 59-172 155-165 302 3 61 10 97 26 126 57 111 188 144 255 64 34-40 41-78 23-131-20-55-20-63 0-105 19-40 83-74 140-74 79 0 163 79 149 140-4 14-25 53-47 88-97 149-103 329-18 499 74 146 208 254 370 299 55 15 199 17 260 3z" style="stroke:none" transform="matrix(.1 0 0 -.1 -18 283)"/><path d="m174.5 69.5 1.8 5.5c.7 2.2 1.2 3 1.4 1.8.2-.9-.5-3.4-1.7-5.5-1.2-2-1.8-2.9-1.5-1.8zm-86.3 3.6-1.6 5c-.5 2-.4 2 .8-.5.7-1.7 2.1-3.3 3.1-3.6 1.5-.5 1.5-.7.1-1.9-1.3-1-1.7-1-2.4 1zm90.5 9.4c1.2 7.7.7 21-1 27a19 19 0 0 0-1.3 6.2c.3.3 1.3-2 2.3-5.3 2.1-6.8 2.4-25.2.5-29.4-1-2.2-1-2-.5 1.5zm-95.4 16c0 3.3.2 4.5.4 2.7a30 30 0 0 0 0-6c-.2-1.5-.4 0-.4 3.3zm16.1 3.9c-2.4 2.4-3.4 4.3-3.4 6.5 0 12.3 15 16.7 20.5 6.1 2.5-4.9 2-8.8-1.9-12.6-2.8-2.8-4.2-3.4-7.6-3.4-3.4 0-4.8.6-7.6 3.4zm9 2.8c1.6 2.6-.4 5.3-4 5.3-2.3 0-3-.5-3.2-2.3-.7-4.7 4.7-6.9 7.2-3zm5.6 4.8c0 2-.9 4-2.5 5.5-2.7 2.8-3.7 3-6.6 1.5-2.6-1.4-2.4-3 .3-3 2.4 0 6.8-3.6 6.8-5.7 0-.7.5-1.3 1-1.3.6 0 1 1.4 1 3zm36.4-9a11.4 11.4 0 0 0-4.8 11.4c.3 1.5 2 4 3.6 5.6 5.1 5.1 12.8 3.7 16.3-3 5.4-10.4-5.2-20.2-15-14zm7.2 4.5c1 4-.2 5.7-3.8 5.3-2.6-.2-3.4-.8-3.6-2.6-.7-5 6.2-7.6 7.4-2.7zm5.7 4.5c.7 2.7-3.7 8-6.7 8-1.3 0-3-.9-4-2-1.9-2-1.8-2 1.3-2 3.4 0 8.6-4.4 7.4-6.3-.3-.5 0-.7.4-.4.6.4 1.3 1.6 1.6 2.7zm-121.3.3c-4.9 2.5-5.2 10.2-.5 13.3 7.5 5 16-7 9-12.5-3.2-2.4-5-2.6-8.5-.8zm7.8 4.4c2.2 4.2-2.6 8.6-6.8 6.3-2.4-1.3-2.5-2.8-.4-5.8 1.8-2.6 6-2.9 7.2-.5zm166.2-5a7.2 7.2 0 0 0-5 7.3c0 6 5.5 9.3 10.8 6.6 3.2-1.6 4.2-3.4 4.2-7 0-4.6-5.8-8.5-10-6.9zm6.5 6.8c0 3.5-3.7 6-6.7 4.4-2.2-1.2-2.3-2.8-.2-5.7 1.1-1.6 2.4-2.2 4.2-2 2.3.2 2.7.8 2.7 3.3zm-131.8 3.6c1.6 3 3 5 3.1 4.2.4-1.5-2.2-6.6-4.2-8.3-1-.8-.5.8 1.1 4.1zm30.3 3.4c-2.6 3.1 2.1 7.3 9 8.2a14 14 0 0 0 8.5-1.7c5.3-2.6 6.5-4.5 4.2-6.7-1.4-1.4-1.8-1.4-4.3.6-3.4 2.7-8.9 2.7-13 .2-2.8-1.7-3.4-1.8-4.4-.6zm-78.5 11.7c-5.4 3-6 8.4-1.6 13 4 3.7 7.2 3.7 10.6-.4 2.2-2.6 2.6-3.9 2.1-6.7-.9-5.9-6-8.7-11-5.9zm7.8 4.6c3.6 4-1.8 9.7-6.8 7.4-2.9-1.4-3.3-4.6-.8-7.4a5 5 0 0 1 7.6 0zm165.5-5c-7.9 1-7.6 14 .3 15.7 3.8 1 9.2-4 9.2-8.3 0-5.3-3.6-8-9.5-7.4zm5.5 4.6c2.3 1.7 2.2 3.7-.3 6.4-2.6 2.7-4.4 2.8-7 .2-2.3-2.3-1.5-5 1.8-6.9 2.3-1.4 3.3-1.3 5.5.3zm-131.9-.3c-1 1.2-4 3.2-6.9 4.5a22.5 22.5 0 0 1-20.2 0c-6.4-3-6.9-2.6-1 1 3.4 1.8 5.7 2.4 10.3 2.3 8 0 16.5-3.6 19.2-8 1.6-2.5 1-2.4-1.4.2zm18.6 8.3c0 6.8-9.5 18.1-19.5 23.4-2.2 1.2-3.6 2.1-3.2 2.2 3.4.1 16.4-10 20.3-16 3.1-4.6 4.5-9.3 3.3-11-.6-1-.9-.7-.9 1.4zm17.6 12.1 1.4 5.5.8 3.5.1-3.6c0-1.9-.6-4.4-1.5-5.5-1.5-1.9-1.6-1.9-.8.1zM67 185.7c-6 7.8 5.2 17.4 11.7 10C83.4 190 80.3 183 73 183c-3 0-4.3.6-6 2.7zm9.2 2.3c2.2 2.1 3.2 3.3.4 6-1.8 1.6-3 2-5 1.4-1.5-.4-3-1.3-3.3-2-.9-2.4 1.4-6.2 4-6.7l3-.6c.3 0 .1 1 .9 2zm52-4.3c-1.5.6-4.2 5.6-4.2 7.8 0 2.5 4.6 6.5 7.5 6.5 3 0 8.5-4.9 8.5-7.5 0-.9-1.3-3-2.9-4.6-2.8-2.7-5.8-3.5-8.9-2.2zm8.3 5.2c1.4 4.7-5.4 8.3-8.5 4.6-1-1.2-.9-2 .4-4 2.1-3.2 7.1-3.5 8.1-.6zm47.8-3.7c-3 3.4-3.5 5.6-1.8 8.8 2.8 5.4 7.3 6.4 12 2.6 3.5-2.8 4-8.3 1-11.6-2.6-2.8-8.5-2.7-11.2.2zm10.3 3c1.2 1.8-.6 5.5-3.2 6.7-2.2 1-3 1-5-.4-2.3-1.5-2.3-1.7-.9-4.4.8-1.6 2-3 2.7-3.3 1.7-.6 5.7.3 6.4 1.4zM172.8 200c-.4 4.3.5 5.2 2.2 2 .8-1.4.8-2.6 0-4-1.5-2.8-1.7-2.6-2.2 2zm-82.5-.4c-.3.8 0 2.5.5 3.7 1 2 1.1 1.8 1.1-1.6.1-3.9-.5-4.8-1.6-2zm-10.1 1.6c-.7.7-3.3 1.5-6 2l-4.7.7 5.3-.3c3.3-.2 6-1 7-2 1-.9 1.2-1.6.6-1.6-.5 0-1.5.5-2.2 1.2zm103.2 1.2c2 1.6 10.1 2.2 11 .8.2-.4-1.5-.5-3.9-.4-2.4.2-5.3 0-6.6-.8-2.3-1-2.3-1-.5.4zm-55.6 4.1c-7.2 4-6 13.5 2 16 2.5.7 7.7-1.7 9.2-4.4 4-7.3-4-15.5-11.2-11.6zm9 4.7c3 2.5.3 7-4.9 8.3-2.6.6-5.9-1.4-5.9-3.6a12 12 0 0 1 3.4-6.2c1.3-.8 5.5 0 7.3 1.5zm-66.1-87.9c2.1 4.2 4 7.2 4.1 6.7.4-1.2-4.8-11.7-6.5-13.2-.8-.6.3 2.3 2.4 6.5zM38.5 165a37.9 37.9 0 0 0 12 9c.5 0-.8-1.2-3-2.6a88 88 0 0 1-8-6.3l-4-3.6zm176 26.6c1.6 5.2 3 7.4 2 3-1-4.2-2.4-7.6-2.9-7.6-.3 0 .1 2.1 1 4.6zM70 220.4a21.1 21.1 0 0 0 15.5 7.4h4L85 227c-4.6-.7-10-2.6-11-3.8-.3-.4-2-2-4-3.7l-3.5-3z" style="fill:#fff;fill-opacity:1;stroke:none;stroke-opacity:1;stroke-width:.99975;stroke-dasharray:none"/></svg>