<svg width="48" xmlns="http://www.w3.org/2000/svg" height="64" fill="none"><g data-testid="Graphics / Brands / apple.svg"><g class="fills"><rect rx="0" ry="0" width="48" height="64" class="frame-background"/></g><g data-testid="Graphics / Brands / apple.svg" style="fill: rgb(0, 0, 0);" class="frame-children"><path d="M39.838 33.588c-.025-4.588 2.05-8.051 6.25-10.6-2.351-3.363-5.9-5.213-10.588-5.576C31.063 17.063 26.213 20 24.438 20c-1.875 0-6.175-2.463-9.55-2.463C7.913 17.65.5 23.1.5 34.188c0 3.275.6 6.658 1.8 10.15 1.6 4.587 7.375 15.837 13.4 15.65 3.15-.076 5.375-2.238 9.475-2.238 3.975 0 6.038 2.238 9.55 2.238 6.075-.088 11.3-10.313 12.825-14.913-8.15-3.837-7.712-11.25-7.712-11.487Zm-7.075-20.525c3.412-4.051 3.099-7.738 3-9.063-3.013.175-6.5 2.05-8.488 4.363-2.187 2.475-3.475 5.537-3.2 8.987 3.263.25 6.238-1.425 8.688-4.287Z" style="fill: rgb(255, 255, 255); fill-opacity: 1;" class="fills" data-testid="svg-path"/></g></g></svg>