<svg width="56" xmlns="http://www.w3.org/2000/svg" height="64.005" fill="none"><g data-testid="Graphics / Brands / linux.svg"><g class="fills"><rect rx="0" ry="0" width="56" height="64" class="frame-background"/></g><g data-testid="Graphics / Brands / linux.svg" style="fill: rgb(0, 0, 0);" class="frame-children"><path d="M27.6 15.413c.125.062.225.212.375.212.137 0 .35-.05.363-.188.025-.175-.238-.287-.4-.362-.213-.088-.488-.125-.688-.012-.05.024-.1.087-.075.137.038.163.288.137.425.213Zm-2.737.212c.15 0 .25-.15.374-.212.138-.076.388-.05.438-.201.025-.049-.025-.112-.075-.137-.2-.113-.475-.075-.687.012-.163.076-.426.188-.4.363.012.125.225.188.35.175ZM52.5 50.475c-.45-.5-.663-1.45-.9-2.463-.225-1.012-.487-2.099-1.312-2.8a3.393 3.393 0 0 0-.501-.362 2.785 2.785 0 0 0-.512-.25c1.15-3.412.7-6.812-.462-9.888C47.388 30.95 44.9 27.663 43 25.413c-2.137-2.688-4.212-5.238-4.175-9C38.888 10.675 39.463.012 29.35 0c-12.8-.025-9.6 12.925-9.737 16.9-.213 2.925-.8 5.225-2.813 8.088-2.362 2.812-5.687 7.349-7.262 12.087-.75 2.237-1.1 4.512-.775 6.662-.813.725-1.425 1.838-2.075 2.525C6.163 46.8 5.4 47 4.563 47.3c-.838.3-1.75.75-2.313 1.813-.262.487-.35 1.012-.35 1.55 0 .487.075.987.15 1.474.15 1.013.313 1.963.1 2.6-.65 1.801-.737 3.051-.275 3.963.475.913 1.425 1.312 2.513 1.538 2.162.45 5.099.337 7.412 1.562 2.475 1.3 4.988 1.763 6.988 1.3 1.449-.325 2.637-1.2 3.237-2.525 1.563-.013 3.288-.675 6.038-.825 1.862-.15 4.2.663 6.887.512.075.288.175.575.313.838v.013C36.3 63.2 38.238 64.15 40.3 63.988c2.075-.163 4.262-1.376 6.037-3.488 1.7-2.05 4.501-2.9 6.363-4.025.925-.562 1.675-1.263 1.737-2.288.05-1.024-.55-2.162-1.937-3.712ZM27.963 10.913c1.225-2.776 4.274-2.725 5.499-.05.813 1.774.451 3.862-.537 5.05-.2-.1-.737-.326-1.575-.613.137-.15.388-.338.488-.575.6-1.475-.025-3.375-1.138-3.412-.912-.063-1.737 1.35-1.475 2.875-.513-.25-1.175-.438-1.625-.551a4.977 4.977 0 0 1 .363-2.724Zm-5.088-1.438c1.263 0 2.6 1.775 2.388 4.188a4.495 4.495 0 0 0-1.275.574c.15-1.112-.413-2.512-1.2-2.449-1.051.087-1.225 2.65-.225 3.512.125.1.237-.025-.738.687-1.95-1.824-1.312-6.512 1.05-6.512Zm-1.7 7.588c.775-.575 1.7-1.25 1.763-1.313.587-.55 1.687-1.775 3.487-1.775.888 0 1.95.287 3.238 1.112.787.513 1.412.551 2.824 1.163 1.051.438 1.713 1.212 1.313 2.275-.325.888-1.375 1.8-2.837 2.263-1.388.449-2.476 2-4.775 1.862a3.478 3.478 0 0 1-1.201-.263c-.999-.437-1.525-1.3-2.499-1.875-1.075-.599-1.651-1.3-1.838-1.912-.175-.612 0-1.125.525-1.537Zm.412 41.749c-.337 4.388-5.487 4.301-9.412 2.25-3.737-1.975-8.575-.812-9.563-2.737-.299-.588-.299-1.587.326-3.3V55c.3-.95.075-2-.075-2.988-.15-.974-.225-1.875.112-2.5.438-.837 1.063-1.137 1.85-1.412 1.287-.463 1.475-.425 2.45-1.238.688-.712 1.187-1.612 1.788-2.25.637-.687 1.25-1.012 2.212-.862 1.013.15 1.888.85 2.738 2l2.449 4.45c1.188 2.487 5.388 6.05 5.125 8.612Zm-.174-3.237c-.513-.825-1.2-1.7-1.8-2.45.887 0 1.775-.275 2.087-1.113.287-.775 0-1.862-.925-3.112-1.688-2.275-4.787-4.063-4.787-4.063C14.3 43.788 13.35 42.5 12.913 41.1c-.438-1.4-.375-2.912-.038-4.4.65-2.863 2.325-5.65 3.4-7.4.288-.213.1.4-1.087 2.6-1.063 2.013-3.05 6.663-.326 10.3.076-2.588.688-5.225 1.726-7.688 1.499-3.425 4.662-9.362 4.912-14.087.138.1.575.4.775.513.575.337 1.013.837 1.575 1.287 1.55 1.25 3.563 1.15 5.3.15.775-.437 1.4-.937 1.988-1.125 1.237-.387 2.224-1.075 2.787-1.875.963 3.8 3.213 9.288 4.65 11.962.762 1.425 2.288 4.438 2.95 8.076.412-.013.875.049 1.363.174 1.724-4.462-1.463-9.274-2.913-10.612-.587-.575-.613-.825-.325-.812 1.575 1.399 3.65 4.212 4.4 7.375.35 1.449.412 2.962.05 4.462 2.05.85 4.487 2.237 3.838 4.35-.275-.013-.4 0-.525 0 .4-1.263-.488-2.2-2.851-3.263-2.45-1.075-4.499-1.075-4.787 1.563-1.512.525-2.288 1.838-2.675 3.413-.35 1.399-.45 3.087-.55 4.987-.062.962-.45 2.25-.85 3.625-4.012 2.863-9.588 4.112-14.287.9Zm32.174-1.438c-.112 2.1-5.149 2.488-7.9 5.813-1.649 1.963-3.674 3.05-5.45 3.187-1.775.138-3.312-.599-4.212-2.412-.587-1.388-.3-2.888.138-4.538.462-1.775 1.15-3.6 1.237-5.075.1-1.9.212-3.562.525-4.837.325-1.288.825-2.15 1.712-2.638.038-.024.088-.037.126-.062.099 1.65.912 3.325 2.349 3.687 1.575.413 3.838-.937 4.8-2.037 1.125-.037 1.963-.113 2.825.637 1.238 1.063.888 3.788 2.138 5.201 1.325 1.449 1.75 2.437 1.712 3.074Zm-31.924-35.55c.25.238.587.563 1 .888.824.65 1.975 1.325 3.412 1.325 1.45 0 2.813-.737 3.975-1.35.613-.325 1.363-.875 1.85-1.3.488-.425.738-.787.388-.825-.35-.037-.326.325-.75.637-.55.401-1.213.925-1.738 1.226-.925.524-2.437 1.274-3.737 1.274-1.3 0-2.338-.599-3.113-1.212-.387-.313-.712-.625-.963-.863-.187-.175-.237-.574-.537-.612-.175-.013-.225.463.213.812Z" style="fill: rgb(255, 255, 255); fill-opacity: 1;" class="fills" data-testid="svg-path"/></g></g></svg>