<svg xmlns="http://www.w3.org/2000/svg" viewBox="306 1421 448 320"><g data-testid="svg-path"><defs><linearGradient id="a" x1="1.004" y1=".298" x2="-.008" y2=".285"><stop offset="0" stop-color="#22003a"/><stop offset="1" stop-color="#026071"/></linearGradient><pattern patternUnits="userSpaceOnUse" x="306" y="1421" width="448" height="320" id="b"><rect width="448" height="320" style="fill: url(&quot;#a&quot;);"/></pattern></defs><path d="M306 1541c0-66.3 53.7-120 120-120h8c17.7 0 32 14.3 32 32s-14.3 32-32 32h-8c-30.9 0-56 25.1-56 56v8h64c35.3 0 64 28.7 64 64v64c0 35.3-28.7 64-64 64h-64c-35.3 0-64-28.7-64-64v-136Zm256 0c0-66.3 53.7-120 120-120h8c17.7 0 32 14.3 32 32s-14.3 32-32 32h-8c-30.9 0-56 25.1-56 56v8h64c35.3 0 64 28.7 64 64v64c0 35.3-28.7 64-64 64h-64c-35.3 0-64-28.7-64-64v-136Z" fill="url(#b)" class="fills"/></g></svg>