<svg width="56" xmlns="http://www.w3.org/2000/svg" height="64" fill="none"><g data-testid="Graphics / Brands / app-store-ios.svg"><g class="fills"><rect rx="0" ry="0" width="56" height="64" class="frame-background"/></g><g data-testid="Graphics / Brands / app-store-ios.svg" style="fill: rgb(0, 0, 0);" class="frame-children"><path d="M50 4H6c-3.312 0-6 2.687-6 6v44c0 3.313 2.688 6 6 6h44a6 6 0 0 0 6-6V10a6 6 0 0 0-6-6ZM15.875 48.062a2.496 2.496 0 0 1-3.413.913 2.496 2.496 0 0 1-.912-3.412l1.787-3.088c2.013-.612 3.663-.138 4.951 1.425l-2.413 4.162Zm17.362-6.737H10.5a2.507 2.507 0 0 1-2.5-2.5c0-1.375 1.125-2.5 2.5-2.5h6.375l8.175-14.15-2.563-4.425a2.506 2.506 0 0 1 .913-3.413 2.505 2.505 0 0 1 3.413.913l1.112 1.925 1.113-1.925a2.496 2.496 0 0 1 3.412-.913c1.2.688 1.6 2.225.912 3.413L22.637 36.325H30.4c2.525 0 3.937 2.962 2.837 5Zm12.263 0h-3.625l2.45 4.238a2.505 2.505 0 0 1-.912 3.412A2.505 2.505 0 0 1 40 48.062C35.888 40.95 32.813 35.6 30.75 32.05c-2.087-3.625-.6-7.25.888-8.475 1.637 2.837 4.087 7.087 7.362 12.75h6.5c1.375 0 2.5 1.125 2.5 2.5a2.5 2.5 0 0 1-2.5 2.5Z" style="fill: rgb(255, 255, 255); fill-opacity: 1;" class="fills" data-testid="svg-path"/></g></g></svg>